<svg xmlns="http://www.w3.org/2000/svg" viewBox="0 0 2630 2215" width="2630" height="2215" style="background:#f5f0e8">
  <text x="1315" y="30" text-anchor="middle" font-size="20" fill="#333" font-family="sans-serif" font-weight="bold">Qwirkle Board State</text>
  <!-- Coordinate labels: x (columns) -->
  <text x="105"  y="48" text-anchor="middle" font-size="13" fill="#777" font-family="monospace">-7</text>
  <text x="215"  y="48" text-anchor="middle" font-size="13" fill="#777" font-family="monospace">-6</text>
  <text x="325"  y="48" text-anchor="middle" font-size="13" fill="#777" font-family="monospace">-5</text>
  <text x="435"  y="48" text-anchor="middle" font-size="13" fill="#777" font-family="monospace">-4</text>
  <text x="545"  y="48" text-anchor="middle" font-size="13" fill="#777" font-family="monospace">-3</text>
  <text x="655"  y="48" text-anchor="middle" font-size="13" fill="#777" font-family="monospace">-2</text>
  <text x="765"  y="48" text-anchor="middle" font-size="13" fill="#777" font-family="monospace">-1</text>
  <text x="875"  y="48" text-anchor="middle" font-size="13" fill="#777" font-family="monospace">0</text>
  <text x="985"  y="48" text-anchor="middle" font-size="13" fill="#777" font-family="monospace">1</text>
  <text x="1095"  y="48" text-anchor="middle" font-size="13" fill="#777" font-family="monospace">2</text>
  <text x="1205"  y="48" text-anchor="middle" font-size="13" fill="#777" font-family="monospace">3</text>
  <text x="1315"  y="48" text-anchor="middle" font-size="13" fill="#777" font-family="monospace">4</text>
  <text x="1425"  y="48" text-anchor="middle" font-size="13" fill="#777" font-family="monospace">5</text>
  <text x="1535"  y="48" text-anchor="middle" font-size="13" fill="#777" font-family="monospace">6</text>
  <text x="1645"  y="48" text-anchor="middle" font-size="13" fill="#777" font-family="monospace">7</text>
  <text x="1755"  y="48" text-anchor="middle" font-size="13" fill="#777" font-family="monospace">8</text>
  <text x="1865"  y="48" text-anchor="middle" font-size="13" fill="#777" font-family="monospace">9</text>
  <text x="1975"  y="48" text-anchor="middle" font-size="13" fill="#777" font-family="monospace">10</text>
  <text x="2085"  y="48" text-anchor="middle" font-size="13" fill="#777" font-family="monospace">11</text>
  <text x="2195"  y="48" text-anchor="middle" font-size="13" fill="#777" font-family="monospace">12</text>
  <text x="2305"  y="48" text-anchor="middle" font-size="13" fill="#777" font-family="monospace">13</text>
  <text x="2415"  y="48" text-anchor="middle" font-size="13" fill="#777" font-family="monospace">14</text>
  <text x="2525"  y="48" text-anchor="middle" font-size="13" fill="#777" font-family="monospace">15</text>
  <!-- Coordinate labels: y (rows) -->
  <text x="30" y="1989" text-anchor="middle" font-size="13" fill="#777" font-family="monospace">-8</text>
  <text x="30" y="1879" text-anchor="middle" font-size="13" fill="#777" font-family="monospace">-7</text>
  <text x="30" y="1769" text-anchor="middle" font-size="13" fill="#777" font-family="monospace">-6</text>
  <text x="30" y="1659" text-anchor="middle" font-size="13" fill="#777" font-family="monospace">-5</text>
  <text x="30" y="1549" text-anchor="middle" font-size="13" fill="#777" font-family="monospace">-4</text>
  <text x="30" y="1439" text-anchor="middle" font-size="13" fill="#777" font-family="monospace">-3</text>
  <text x="30" y="1329" text-anchor="middle" font-size="13" fill="#777" font-family="monospace">-2</text>
  <text x="30" y="1219" text-anchor="middle" font-size="13" fill="#777" font-family="monospace">-1</text>
  <text x="30" y="1109" text-anchor="middle" font-size="13" fill="#777" font-family="monospace">0</text>
  <text x="30" y="999" text-anchor="middle" font-size="13" fill="#777" font-family="monospace">1</text>
  <text x="30" y="889" text-anchor="middle" font-size="13" fill="#777" font-family="monospace">2</text>
  <text x="30" y="779" text-anchor="middle" font-size="13" fill="#777" font-family="monospace">3</text>
  <text x="30" y="669" text-anchor="middle" font-size="13" fill="#777" font-family="monospace">4</text>
  <text x="30" y="559" text-anchor="middle" font-size="13" fill="#777" font-family="monospace">5</text>
  <text x="30" y="449" text-anchor="middle" font-size="13" fill="#777" font-family="monospace">6</text>
  <text x="30" y="339" text-anchor="middle" font-size="13" fill="#777" font-family="monospace">7</text>
  <text x="30" y="229" text-anchor="middle" font-size="13" fill="#777" font-family="monospace">8</text>
  <text x="30" y="119" text-anchor="middle" font-size="13" fill="#777" font-family="monospace">9</text>

  <!-- ============================================ -->
  <!-- TILES                                        -->
  <!-- ============================================ -->

  <!-- (-5,6) red square  |  px=270 py=390  cx=325 cy=445 -->
  <rect x="270" y="390" width="110" height="110" rx="8" fill="#222"/>
  <rect x="292" y="412" width="66" height="66" rx="4" fill="#e02020"/>

  <!-- (-5,5) purple square  |  px=270 py=500  cx=325 cy=555 -->
  <rect x="270" y="500" width="110" height="110" rx="8" fill="#222"/>
  <rect x="292" y="522" width="66" height="66" rx="4" fill="#8833cc"/>

  <!-- (-5,4) green square  |  px=270 py=610  cx=325 cy=665 -->
  <rect x="270" y="610" width="110" height="110" rx="8" fill="#222"/>
  <rect x="292" y="632" width="66" height="66" rx="4" fill="#22aa33"/>

  <!-- (-5,3) yellow square  |  px=270 py=720  cx=325 cy=775 -->
  <rect x="270" y="720" width="110" height="110" rx="8" fill="#222"/>
  <rect x="292" y="742" width="66" height="66" rx="4" fill="#f5d000"/>

  <!-- (-4,4) green star  |  px=380 py=610  cx=435 cy=665 -->
  <rect x="380" y="610" width="110" height="110" rx="8" fill="#222"/>
  <g transform="translate(435,665)">
    <polygon points="0,-42 8,-8 42,0 8,8 0,42 -8,8 -42,0 -8,-8" fill="#22aa33"/>
    <polygon points="0,-42 8,-8 42,0 8,8 0,42 -8,8 -42,0 -8,-8" fill="#22aa33" transform="rotate(45)" />
  </g>

  <!-- (-4,3) yellow star  |  px=380 py=720  cx=435 cy=775 -->
  <rect x="380" y="720" width="110" height="110" rx="8" fill="#222"/>
  <g transform="translate(435,775)">
    <polygon points="0,-42 8,-8 42,0 8,8 0,42 -8,8 -42,0 -8,-8" fill="#f5d000"/>
    <polygon points="0,-42 8,-8 42,0 8,8 0,42 -8,8 -42,0 -8,-8" fill="#f5d000" transform="rotate(45)" />
  </g>

  <!-- (-4,2) orange star  |  px=380 py=830  cx=435 cy=885 -->
  <rect x="380" y="830" width="110" height="110" rx="8" fill="#222"/>
  <g transform="translate(435,885)">
    <polygon points="0,-42 8,-8 42,0 8,8 0,42 -8,8 -42,0 -8,-8" fill="#ff8800"/>
    <polygon points="0,-42 8,-8 42,0 8,8 0,42 -8,8 -42,0 -8,-8" fill="#ff8800" transform="rotate(45)" />
  </g>

  <!-- (-3,6) green crossX  |  px=490 py=390  cx=545 cy=445 -->
  <rect x="490" y="390" width="110" height="110" rx="8" fill="#222"/>
  <g transform="translate(545,445) rotate(45)">
    <polygon points="0,-42 8,-8 42,0 8,8 0,42 -8,8 -42,0 -8,-8" fill="#22aa33"/>
  </g>

  <!-- (-3,3) yellow circle  |  px=490 py=720  cx=545 cy=775 -->
  <rect x="490" y="720" width="110" height="110" rx="8" fill="#222"/>
  <circle cx="545" cy="775" r="36" fill="#f5d000"/>

  <!-- (-3,2) orange circle  |  px=490 py=830  cx=545 cy=885 -->
  <rect x="490" y="830" width="110" height="110" rx="8" fill="#222"/>
  <circle cx="545" cy="885" r="36" fill="#ff8800"/>

  <!-- (-3,0) yellow crossX  |  px=490 py=1050  cx=545 cy=1105 -->
  <rect x="490" y="1050" width="110" height="110" rx="8" fill="#222"/>
  <g transform="translate(545,1105) rotate(45)">
    <polygon points="0,-42 8,-8 42,0 8,8 0,42 -8,8 -42,0 -8,-8" fill="#f5d000"/>
  </g>

  <!-- (-2,6) green circle  |  px=600 py=390  cx=655 cy=445 -->
  <rect x="600" y="390" width="110" height="110" rx="8" fill="#222"/>
  <circle cx="655" cy="445" r="36" fill="#22aa33"/>

  <!-- (-2,3) yellow clover  |  px=600 py=720  cx=655 cy=775 -->
  <rect x="600" y="720" width="110" height="110" rx="8" fill="#222"/>
  <g transform="translate(655,775)">
    <circle cx="0" cy="-26" r="18" fill="#f5d000"/>
    <circle cx="26" cy="0" r="18" fill="#f5d000"/>
    <circle cx="0" cy="26" r="18" fill="#f5d000"/>
    <circle cx="-26" cy="0" r="18" fill="#f5d000"/>
    <rect x="-9" y="-26" width="18" height="52" fill="#f5d000"/>
    <rect x="-26" y="-9" width="52" height="18" fill="#f5d000"/>
  </g>

  <!-- (-2,0) purple crossX  |  px=600 py=1050  cx=655 cy=1105 -->
  <rect x="600" y="1050" width="110" height="110" rx="8" fill="#222"/>
  <g transform="translate(655,1105) rotate(45)">
    <polygon points="0,-42 8,-8 42,0 8,8 0,42 -8,8 -42,0 -8,-8" fill="#8833cc"/>
  </g>

  <!-- (-1,7) blue diamond  |  px=710 py=280  cx=765 cy=335 -->
  <rect x="710" y="280" width="110" height="110" rx="8" fill="#222"/>
  <polygon points="765,294 806,335 765,376 724,335" fill="#1a6edb"/>

  <!-- (-1,6) green diamond  |  px=710 py=390  cx=765 cy=445 -->
  <rect x="710" y="390" width="110" height="110" rx="8" fill="#222"/>
  <polygon points="765,404 806,445 765,486 724,445" fill="#22aa33"/>

  <!-- (-1,5) purple diamond  |  px=710 py=500  cx=765 cy=555 -->
  <rect x="710" y="500" width="110" height="110" rx="8" fill="#222"/>
  <polygon points="765,514 806,555 765,596 724,555" fill="#8833cc"/>

  <!-- (-1,4) red diamond  |  px=710 py=610  cx=765 cy=665 -->
  <rect x="710" y="610" width="110" height="110" rx="8" fill="#222"/>
  <polygon points="765,624 806,665 765,706 724,665" fill="#e02020"/>

  <!-- (-1,3) yellow diamond  |  px=710 py=720  cx=765 cy=775 -->
  <rect x="710" y="720" width="110" height="110" rx="8" fill="#222"/>
  <polygon points="765,734 806,775 765,816 724,775" fill="#f5d000"/>

  <!-- (-1,2) orange diamond  |  px=710 py=830  cx=765 cy=885 -->
  <rect x="710" y="830" width="110" height="110" rx="8" fill="#222"/>
  <polygon points="765,844 806,885 765,926 724,885" fill="#ff8800"/>

  <!-- (-1,0) orange crossX  |  px=710 py=1050  cx=765 cy=1105 -->
  <rect x="710" y="1050" width="110" height="110" rx="8" fill="#222"/>
  <g transform="translate(765,1105) rotate(45)">
    <polygon points="0,-42 8,-8 42,0 8,8 0,42 -8,8 -42,0 -8,-8" fill="#ff8800"/>
  </g>

  <!-- (0,5) purple crossX  |  px=820 py=500  cx=875 cy=555 -->
  <rect x="820" y="500" width="110" height="110" rx="8" fill="#222"/>
  <g transform="translate(875,555) rotate(45)">
    <polygon points="0,-42 8,-8 42,0 8,8 0,42 -8,8 -42,0 -8,-8" fill="#8833cc"/>
  </g>

  <!-- (0,4) red crossX  |  px=820 py=610  cx=875 cy=665 -->
  <rect x="820" y="610" width="110" height="110" rx="8" fill="#222"/>
  <g transform="translate(875,665) rotate(45)">
    <polygon points="0,-42 8,-8 42,0 8,8 0,42 -8,8 -42,0 -8,-8" fill="#e02020"/>
  </g>

  <!-- (0,3) yellow crossX  |  px=820 py=720  cx=875 cy=775 -->
  <rect x="820" y="720" width="110" height="110" rx="8" fill="#222"/>
  <g transform="translate(875,775) rotate(45)">
    <polygon points="0,-42 8,-8 42,0 8,8 0,42 -8,8 -42,0 -8,-8" fill="#f5d000"/>
  </g>

  <!-- (0,2) orange crossX  |  px=820 py=830  cx=875 cy=885 -->
  <rect x="820" y="830" width="110" height="110" rx="8" fill="#222"/>
  <g transform="translate(875,885) rotate(45)">
    <polygon points="0,-42 8,-8 42,0 8,8 0,42 -8,8 -42,0 -8,-8" fill="#ff8800"/>
  </g>

  <!-- (0,1) green crossX  |  px=820 py=940  cx=875 cy=995 -->
  <rect x="820" y="940" width="110" height="110" rx="8" fill="#222"/>
  <g transform="translate(875,995) rotate(45)">
    <polygon points="0,-42 8,-8 42,0 8,8 0,42 -8,8 -42,0 -8,-8" fill="#22aa33"/>
  </g>

  <!-- (0,0) blue crossX  |  px=820 py=1050  cx=875 cy=1105 -->
  <rect x="820" y="1050" width="110" height="110" rx="8" fill="#222"/>
  <g transform="translate(875,1105) rotate(45)">
    <polygon points="0,-42 8,-8 42,0 8,8 0,42 -8,8 -42,0 -8,-8" fill="#1a6edb"/>
  </g>

  <!-- (1,5) purple circle  |  px=930 py=500  cx=985 cy=555 -->
  <rect x="930" y="500" width="110" height="110" rx="8" fill="#222"/>
  <circle cx="985" cy="555" r="36" fill="#8833cc"/>

  <!-- (1,4) red circle  |  px=930 py=610  cx=985 cy=665 -->
  <rect x="930" y="610" width="110" height="110" rx="8" fill="#222"/>
  <circle cx="985" cy="665" r="36" fill="#e02020"/>

  <!-- (1,1) green star  |  px=930 py=940  cx=985 cy=995 -->
  <rect x="930" y="940" width="110" height="110" rx="8" fill="#222"/>
  <g transform="translate(985,995)">
    <polygon points="0,-42 8,-8 42,0 8,8 0,42 -8,8 -42,0 -8,-8" fill="#22aa33"/>
    <polygon points="0,-42 8,-8 42,0 8,8 0,42 -8,8 -42,0 -8,-8" fill="#22aa33" transform="rotate(45)" />
  </g>

  <!-- (1,-1) blue clover  |  px=930 py=1160  cx=985 cy=1215 -->
  <rect x="930" y="1160" width="110" height="110" rx="8" fill="#222"/>
  <g transform="translate(985,1215)">
    <circle cx="0" cy="-26" r="18" fill="#1a6edb"/>
    <circle cx="26" cy="0" r="18" fill="#1a6edb"/>
    <circle cx="0" cy="26" r="18" fill="#1a6edb"/>
    <circle cx="-26" cy="0" r="18" fill="#1a6edb"/>
    <rect x="-9" y="-26" width="18" height="52" fill="#1a6edb"/>
    <rect x="-26" y="-9" width="52" height="18" fill="#1a6edb"/>
  </g>

  <!-- (1,-2) purple clover  |  px=930 py=1270  cx=985 cy=1325 -->
  <rect x="930" y="1270" width="110" height="110" rx="8" fill="#222"/>
  <g transform="translate(985,1325)">
    <circle cx="0" cy="-26" r="18" fill="#8833cc"/>
    <circle cx="26" cy="0" r="18" fill="#8833cc"/>
    <circle cx="0" cy="26" r="18" fill="#8833cc"/>
    <circle cx="-26" cy="0" r="18" fill="#8833cc"/>
    <rect x="-9" y="-26" width="18" height="52" fill="#8833cc"/>
    <rect x="-26" y="-9" width="52" height="18" fill="#8833cc"/>
  </g>

  <!-- (2,1) green clover  |  px=1040 py=940  cx=1095 cy=995 -->
  <rect x="1040" y="940" width="110" height="110" rx="8" fill="#222"/>
  <g transform="translate(1095,995)">
    <circle cx="0" cy="-26" r="18" fill="#22aa33"/>
    <circle cx="26" cy="0" r="18" fill="#22aa33"/>
    <circle cx="0" cy="26" r="18" fill="#22aa33"/>
    <circle cx="-26" cy="0" r="18" fill="#22aa33"/>
    <rect x="-9" y="-26" width="18" height="52" fill="#22aa33"/>
    <rect x="-26" y="-9" width="52" height="18" fill="#22aa33"/>
  </g>

  <!-- (2,0) purple clover  |  px=1040 py=1050  cx=1095 cy=1105 -->
  <rect x="1040" y="1050" width="110" height="110" rx="8" fill="#222"/>
  <g transform="translate(1095,1105)">
    <circle cx="0" cy="-26" r="18" fill="#8833cc"/>
    <circle cx="26" cy="0" r="18" fill="#8833cc"/>
    <circle cx="0" cy="26" r="18" fill="#8833cc"/>
    <circle cx="-26" cy="0" r="18" fill="#8833cc"/>
    <rect x="-9" y="-26" width="18" height="52" fill="#8833cc"/>
    <rect x="-26" y="-9" width="52" height="18" fill="#8833cc"/>
  </g>

  <!-- (2,-1) yellow clover  |  px=1040 py=1160  cx=1095 cy=1215 -->
  <rect x="1040" y="1160" width="110" height="110" rx="8" fill="#222"/>
  <g transform="translate(1095,1215)">
    <circle cx="0" cy="-26" r="18" fill="#f5d000"/>
    <circle cx="26" cy="0" r="18" fill="#f5d000"/>
    <circle cx="0" cy="26" r="18" fill="#f5d000"/>
    <circle cx="-26" cy="0" r="18" fill="#f5d000"/>
    <rect x="-9" y="-26" width="18" height="52" fill="#f5d000"/>
    <rect x="-26" y="-9" width="52" height="18" fill="#f5d000"/>
  </g>

  <!-- (2,-2) red clover  |  px=1040 py=1270  cx=1095 cy=1325 -->
  <rect x="1040" y="1270" width="110" height="110" rx="8" fill="#222"/>
  <g transform="translate(1095,1325)">
    <circle cx="0" cy="-26" r="18" fill="#e02020"/>
    <circle cx="26" cy="0" r="18" fill="#e02020"/>
    <circle cx="0" cy="26" r="18" fill="#e02020"/>
    <circle cx="-26" cy="0" r="18" fill="#e02020"/>
    <rect x="-9" y="-26" width="18" height="52" fill="#e02020"/>
    <rect x="-26" y="-9" width="52" height="18" fill="#e02020"/>
  </g>

  <!-- (2,-3) blue clover  |  px=1040 py=1380  cx=1095 cy=1435 -->
  <rect x="1040" y="1380" width="110" height="110" rx="8" fill="#222"/>
  <g transform="translate(1095,1435)">
    <circle cx="0" cy="-26" r="18" fill="#1a6edb"/>
    <circle cx="26" cy="0" r="18" fill="#1a6edb"/>
    <circle cx="0" cy="26" r="18" fill="#1a6edb"/>
    <circle cx="-26" cy="0" r="18" fill="#1a6edb"/>
    <rect x="-9" y="-26" width="18" height="52" fill="#1a6edb"/>
    <rect x="-26" y="-9" width="52" height="18" fill="#1a6edb"/>
  </g>

  <!-- (2,-4) orange clover  |  px=1040 py=1490  cx=1095 cy=1545 -->
  <rect x="1040" y="1490" width="110" height="110" rx="8" fill="#222"/>
  <g transform="translate(1095,1545)">
    <circle cx="0" cy="-26" r="18" fill="#ff8800"/>
    <circle cx="26" cy="0" r="18" fill="#ff8800"/>
    <circle cx="0" cy="26" r="18" fill="#ff8800"/>
    <circle cx="-26" cy="0" r="18" fill="#ff8800"/>
    <rect x="-9" y="-26" width="18" height="52" fill="#ff8800"/>
    <rect x="-26" y="-9" width="52" height="18" fill="#ff8800"/>
  </g>

  <!-- (3,4) yellow square  |  px=1150 py=610  cx=1205 cy=665 -->
  <rect x="1150" y="610" width="110" height="110" rx="8" fill="#222"/>
  <rect x="1172" y="632" width="66" height="66" rx="4" fill="#f5d000"/>

  <!-- (3,3) blue square  |  px=1150 py=720  cx=1205 cy=775 -->
  <rect x="1150" y="720" width="110" height="110" rx="8" fill="#222"/>
  <rect x="1172" y="742" width="66" height="66" rx="4" fill="#1a6edb"/>

  <!-- (3,2) red square  |  px=1150 py=830  cx=1205 cy=885 -->
  <rect x="1150" y="830" width="110" height="110" rx="8" fill="#222"/>
  <rect x="1172" y="852" width="66" height="66" rx="4" fill="#e02020"/>

  <!-- (3,1) green square  |  px=1150 py=940  cx=1205 cy=995 -->
  <rect x="1150" y="940" width="110" height="110" rx="8" fill="#222"/>
  <rect x="1172" y="962" width="66" height="66" rx="4" fill="#22aa33"/>

  <!-- (3,0) purple square  |  px=1150 py=1050  cx=1205 cy=1105 -->
  <rect x="1150" y="1050" width="110" height="110" rx="8" fill="#222"/>
  <rect x="1172" y="1072" width="66" height="66" rx="4" fill="#8833cc"/>

  <!-- (3,-3) blue diamond  |  px=1150 py=1380  cx=1205 cy=1435 -->
  <rect x="1150" y="1380" width="110" height="110" rx="8" fill="#222"/>
  <polygon points="1205,1394 1246,1435 1205,1476 1164,1435" fill="#1a6edb"/>

  <!-- (4,3) blue diamond  |  px=1260 py=720  cx=1315 cy=775 -->
  <rect x="1260" y="720" width="110" height="110" rx="8" fill="#222"/>
  <polygon points="1315,734 1356,775 1315,816 1274,775" fill="#1a6edb"/>

  <!-- (4,2) red diamond  |  px=1260 py=830  cx=1315 cy=885 -->
  <rect x="1260" y="830" width="110" height="110" rx="8" fill="#222"/>
  <polygon points="1315,844 1356,885 1315,926 1274,885" fill="#e02020"/>

  <!-- (4,1) green diamond  |  px=1260 py=940  cx=1315 cy=995 -->
  <rect x="1260" y="940" width="110" height="110" rx="8" fill="#222"/>
  <polygon points="1315,954 1356,995 1315,1036 1274,995" fill="#22aa33"/>

  <!-- (4,0) purple diamond  |  px=1260 py=1050  cx=1315 cy=1105 -->
  <rect x="1260" y="1050" width="110" height="110" rx="8" fill="#222"/>
  <polygon points="1315,1064 1356,1105 1315,1146 1274,1105" fill="#8833cc"/>

  <!-- (4,-1) yellow diamond  |  px=1260 py=1160  cx=1315 cy=1215 -->
  <rect x="1260" y="1160" width="110" height="110" rx="8" fill="#222"/>
  <polygon points="1315,1174 1356,1215 1315,1256 1274,1215" fill="#f5d000"/>

  <!-- (4,-2) orange diamond  |  px=1260 py=1270  cx=1315 cy=1325 -->
  <rect x="1260" y="1270" width="110" height="110" rx="8" fill="#222"/>
  <polygon points="1315,1284 1356,1325 1315,1366 1274,1325" fill="#ff8800"/>

  <!-- (5,3) blue star  |  px=1370 py=720  cx=1425 cy=775 -->
  <rect x="1370" y="720" width="110" height="110" rx="8" fill="#222"/>
  <g transform="translate(1425,775)">
    <polygon points="0,-42 8,-8 42,0 8,8 0,42 -8,8 -42,0 -8,-8" fill="#1a6edb"/>
    <polygon points="0,-42 8,-8 42,0 8,8 0,42 -8,8 -42,0 -8,-8" fill="#1a6edb" transform="rotate(45)" />
  </g>

  <!-- (5,1) green circle  |  px=1370 py=940  cx=1425 cy=995 -->
  <rect x="1370" y="940" width="110" height="110" rx="8" fill="#222"/>
  <circle cx="1425" cy="995" r="36" fill="#22aa33"/>

  <!-- (5,0) purple circle  |  px=1370 py=1050  cx=1425 cy=1105 -->
  <rect x="1370" y="1050" width="110" height="110" rx="8" fill="#222"/>
  <circle cx="1425" cy="1105" r="36" fill="#8833cc"/>

  <!-- (5,-1) yellow circle  |  px=1370 py=1160  cx=1425 cy=1215 -->
  <rect x="1370" y="1160" width="110" height="110" rx="8" fill="#222"/>
  <circle cx="1425" cy="1215" r="36" fill="#f5d000"/>

  <!-- (5,-2) orange circle  |  px=1370 py=1270  cx=1425 cy=1325 -->
  <rect x="1370" y="1270" width="110" height="110" rx="8" fill="#222"/>
  <circle cx="1425" cy="1325" r="36" fill="#ff8800"/>

  <!-- (5,-3) blue circle  |  px=1370 py=1380  cx=1425 cy=1435 -->
  <rect x="1370" y="1380" width="110" height="110" rx="8" fill="#222"/>
  <circle cx="1425" cy="1435" r="36" fill="#1a6edb"/>

  <!-- (5,-4) red circle  |  px=1370 py=1490  cx=1425 cy=1545 -->
  <rect x="1370" y="1490" width="110" height="110" rx="8" fill="#222"/>
  <circle cx="1425" cy="1545" r="36" fill="#e02020"/>

  <!-- (6,3) blue circle  |  px=1480 py=720  cx=1535 cy=775 -->
  <rect x="1480" y="720" width="110" height="110" rx="8" fill="#222"/>
  <circle cx="1535" cy="775" r="36" fill="#1a6edb"/>

  <!-- (6,-2) orange square  |  px=1480 py=1270  cx=1535 cy=1325 -->
  <rect x="1480" y="1270" width="110" height="110" rx="8" fill="#222"/>
  <rect x="1502" y="1292" width="66" height="66" rx="4" fill="#ff8800"/>

  <!-- (7,-1) purple clover  |  px=1590 py=1160  cx=1645 cy=1215 -->
  <rect x="1590" y="1160" width="110" height="110" rx="8" fill="#222"/>
  <g transform="translate(1645,1215)">
    <circle cx="0" cy="-26" r="18" fill="#8833cc"/>
    <circle cx="26" cy="0" r="18" fill="#8833cc"/>
    <circle cx="0" cy="26" r="18" fill="#8833cc"/>
    <circle cx="-26" cy="0" r="18" fill="#8833cc"/>
    <rect x="-9" y="-26" width="18" height="52" fill="#8833cc"/>
    <rect x="-26" y="-9" width="52" height="18" fill="#8833cc"/>
  </g>

  <!-- (7,-2) orange clover  |  px=1590 py=1270  cx=1645 cy=1325 -->
  <rect x="1590" y="1270" width="110" height="110" rx="8" fill="#222"/>
  <g transform="translate(1645,1325)">
    <circle cx="0" cy="-26" r="18" fill="#ff8800"/>
    <circle cx="26" cy="0" r="18" fill="#ff8800"/>
    <circle cx="0" cy="26" r="18" fill="#ff8800"/>
    <circle cx="-26" cy="0" r="18" fill="#ff8800"/>
    <rect x="-9" y="-26" width="18" height="52" fill="#ff8800"/>
    <rect x="-26" y="-9" width="52" height="18" fill="#ff8800"/>
  </g>

  <!-- (8,-1) purple star  |  px=1700 py=1160  cx=1755 cy=1215 -->
  <rect x="1700" y="1160" width="110" height="110" rx="8" fill="#222"/>
  <g transform="translate(1755,1215)">
    <polygon points="0,-42 8,-8 42,0 8,8 0,42 -8,8 -42,0 -8,-8" fill="#8833cc"/>
    <polygon points="0,-42 8,-8 42,0 8,8 0,42 -8,8 -42,0 -8,-8" fill="#8833cc" transform="rotate(45)" />
  </g>

  <!-- (8,-2) orange star  |  px=1700 py=1270  cx=1755 cy=1325 -->
  <rect x="1700" y="1270" width="110" height="110" rx="8" fill="#222"/>
  <g transform="translate(1755,1325)">
    <polygon points="0,-42 8,-8 42,0 8,8 0,42 -8,8 -42,0 -8,-8" fill="#ff8800"/>
    <polygon points="0,-42 8,-8 42,0 8,8 0,42 -8,8 -42,0 -8,-8" fill="#ff8800" transform="rotate(45)" />
  </g>

  <!-- (8,-3) blue star  |  px=1700 py=1380  cx=1755 cy=1435 -->
  <rect x="1700" y="1380" width="110" height="110" rx="8" fill="#222"/>
  <g transform="translate(1755,1435)">
    <polygon points="0,-42 8,-8 42,0 8,8 0,42 -8,8 -42,0 -8,-8" fill="#1a6edb"/>
    <polygon points="0,-42 8,-8 42,0 8,8 0,42 -8,8 -42,0 -8,-8" fill="#1a6edb" transform="rotate(45)" />
  </g>

  <!-- (8,-4) green star  |  px=1700 py=1490  cx=1755 cy=1545 -->
  <rect x="1700" y="1490" width="110" height="110" rx="8" fill="#222"/>
  <g transform="translate(1755,1545)">
    <polygon points="0,-42 8,-8 42,0 8,8 0,42 -8,8 -42,0 -8,-8" fill="#22aa33"/>
    <polygon points="0,-42 8,-8 42,0 8,8 0,42 -8,8 -42,0 -8,-8" fill="#22aa33" transform="rotate(45)" />
  </g>

  <!-- (8,-5) yellow star  |  px=1700 py=1600  cx=1755 cy=1655 -->
  <rect x="1700" y="1600" width="110" height="110" rx="8" fill="#222"/>
  <g transform="translate(1755,1655)">
    <polygon points="0,-42 8,-8 42,0 8,8 0,42 -8,8 -42,0 -8,-8" fill="#f5d000"/>
    <polygon points="0,-42 8,-8 42,0 8,8 0,42 -8,8 -42,0 -8,-8" fill="#f5d000" transform="rotate(45)" />
  </g>

  <!-- (8,-6) red star  |  px=1700 py=1710  cx=1755 cy=1765 -->
  <rect x="1700" y="1710" width="110" height="110" rx="8" fill="#222"/>
  <g transform="translate(1755,1765)">
    <polygon points="0,-42 8,-8 42,0 8,8 0,42 -8,8 -42,0 -8,-8" fill="#e02020"/>
    <polygon points="0,-42 8,-8 42,0 8,8 0,42 -8,8 -42,0 -8,-8" fill="#e02020" transform="rotate(45)" />
  </g>

  <!-- (9,0) green circle  |  px=1810 py=1050  cx=1865 cy=1105 -->
  <rect x="1810" y="1050" width="110" height="110" rx="8" fill="#222"/>
  <circle cx="1865" cy="1105" r="36" fill="#22aa33"/>

  <!-- (9,-1) purple circle  |  px=1810 py=1160  cx=1865 cy=1215 -->
  <rect x="1810" y="1160" width="110" height="110" rx="8" fill="#222"/>
  <circle cx="1865" cy="1215" r="36" fill="#8833cc"/>

  <!-- (10,1) orange diamond  |  px=1920 py=940  cx=1975 cy=995 -->
  <rect x="1920" y="940" width="110" height="110" rx="8" fill="#222"/>
  <polygon points="1975,954 2016,995 1975,1036 1934,995" fill="#ff8800"/>

  <!-- (10,0) green diamond  |  px=1920 py=1050  cx=1975 cy=1105 -->
  <rect x="1920" y="1050" width="110" height="110" rx="8" fill="#222"/>
  <polygon points="1975,1064 2016,1105 1975,1146 1934,1105" fill="#22aa33"/>

  <!-- (10,-1) purple diamond  |  px=1920 py=1160  cx=1975 cy=1215 -->
  <rect x="1920" y="1160" width="110" height="110" rx="8" fill="#222"/>
  <polygon points="1975,1174 2016,1215 1975,1256 1934,1215" fill="#8833cc"/>

  <!-- (11,2) yellow crossX  |  px=2030 py=830  cx=2085 cy=885 -->
  <rect x="2030" y="830" width="110" height="110" rx="8" fill="#222"/>
  <g transform="translate(2085,885) rotate(45)">
    <polygon points="0,-42 8,-8 42,0 8,8 0,42 -8,8 -42,0 -8,-8" fill="#f5d000"/>
  </g>

  <!-- (11,1) orange crossX  |  px=2030 py=940  cx=2085 cy=995 -->
  <rect x="2030" y="940" width="110" height="110" rx="8" fill="#222"/>
  <g transform="translate(2085,995) rotate(45)">
    <polygon points="0,-42 8,-8 42,0 8,8 0,42 -8,8 -42,0 -8,-8" fill="#ff8800"/>
  </g>

  <!-- (11,0) green crossX  |  px=2030 py=1050  cx=2085 cy=1105 -->
  <rect x="2030" y="1050" width="110" height="110" rx="8" fill="#222"/>
  <g transform="translate(2085,1105) rotate(45)">
    <polygon points="0,-42 8,-8 42,0 8,8 0,42 -8,8 -42,0 -8,-8" fill="#22aa33"/>
  </g>

  <!-- (12,2) yellow clover  |  px=2140 py=830  cx=2195 cy=885 -->
  <rect x="2140" y="830" width="110" height="110" rx="8" fill="#222"/>
  <g transform="translate(2195,885)">
    <circle cx="0" cy="-26" r="18" fill="#f5d000"/>
    <circle cx="26" cy="0" r="18" fill="#f5d000"/>
    <circle cx="0" cy="26" r="18" fill="#f5d000"/>
    <circle cx="-26" cy="0" r="18" fill="#f5d000"/>
    <rect x="-9" y="-26" width="18" height="52" fill="#f5d000"/>
    <rect x="-26" y="-9" width="52" height="18" fill="#f5d000"/>
  </g>

  <!-- (12,1) orange clover  |  px=2140 py=940  cx=2195 cy=995 -->
  <rect x="2140" y="940" width="110" height="110" rx="8" fill="#222"/>
  <g transform="translate(2195,995)">
    <circle cx="0" cy="-26" r="18" fill="#ff8800"/>
    <circle cx="26" cy="0" r="18" fill="#ff8800"/>
    <circle cx="0" cy="26" r="18" fill="#ff8800"/>
    <circle cx="-26" cy="0" r="18" fill="#ff8800"/>
    <rect x="-9" y="-26" width="18" height="52" fill="#ff8800"/>
    <rect x="-26" y="-9" width="52" height="18" fill="#ff8800"/>
  </g>

  <!-- (12,0) green clover  |  px=2140 py=1050  cx=2195 cy=1105 -->
  <rect x="2140" y="1050" width="110" height="110" rx="8" fill="#222"/>
  <g transform="translate(2195,1105)">
    <circle cx="0" cy="-26" r="18" fill="#22aa33"/>
    <circle cx="26" cy="0" r="18" fill="#22aa33"/>
    <circle cx="0" cy="26" r="18" fill="#22aa33"/>
    <circle cx="-26" cy="0" r="18" fill="#22aa33"/>
    <rect x="-9" y="-26" width="18" height="52" fill="#22aa33"/>
    <rect x="-26" y="-9" width="52" height="18" fill="#22aa33"/>
  </g>

  <!-- (13,0) green square  |  px=2250 py=1050  cx=2305 cy=1105 -->
  <rect x="2250" y="1050" width="110" height="110" rx="8" fill="#222"/>
  <rect x="2272" y="1072" width="66" height="66" rx="4" fill="#22aa33"/>

  <!-- ============================================ -->
  <!-- MY TILES (bottom center)                     -->
  <!-- ============================================ -->
  <text x="1315" y="2070" text-anchor="middle" font-size="18" fill="#333" font-family="sans-serif" font-weight="bold">My Tiles</text>

  <!-- 1) blue circle -->
  <rect x="1045" y="2085" width="90" height="90" rx="8" fill="#222"/>
  <circle cx="1090" cy="2130" r="30" fill="#1a6edb"/>
  <text x="1090" y="2195" text-anchor="middle" font-size="11" fill="#555" font-family="sans-serif">blue circle</text>

  <!-- 2) green clover -->
  <rect x="1135" y="2085" width="90" height="90" rx="8" fill="#222"/>
  <g transform="translate(1180,2130)">
    <circle cx="0" cy="-18" r="12" fill="#22aa33"/>
    <circle cx="18" cy="0" r="12" fill="#22aa33"/>
    <circle cx="0" cy="18" r="12" fill="#22aa33"/>
    <circle cx="-18" cy="0" r="12" fill="#22aa33"/>
    <rect x="-6" y="-18" width="12" height="36" fill="#22aa33"/>
  </g>
  <text x="1180" y="2195" text-anchor="middle" font-size="11" fill="#555" font-family="sans-serif">green clover</text>

  <!-- 3) blue square -->
  <rect x="1225" y="2085" width="90" height="90" rx="8" fill="#222"/>
  <rect x="1247" y="2107" width="44" height="44" rx="4" fill="#1a6edb"/>
  <text x="1270" y="2195" text-anchor="middle" font-size="11" fill="#555" font-family="sans-serif">blue square</text>

  <!-- 4) yellow clover -->
  <rect x="1315" y="2085" width="90" height="90" rx="8" fill="#222"/>
  <g transform="translate(1360,2130)">
    <circle cx="0" cy="-18" r="12" fill="#f5d000"/>
    <circle cx="18" cy="0" r="12" fill="#f5d000"/>
    <circle cx="0" cy="18" r="12" fill="#f5d000"/>
    <circle cx="-18" cy="0" r="12" fill="#f5d000"/>
    <rect x="-6" y="-18" width="12" height="36" fill="#f5d000"/>
  </g>
  <text x="1360" y="2195" text-anchor="middle" font-size="11" fill="#555" font-family="sans-serif">yellow clover</text>

  <!-- 5) red diamond -->
  <rect x="1405" y="2085" width="90" height="90" rx="8" fill="#222"/>
  <polygon points="1450,2100 1480,2130 1450,2160 1420,2130" fill="#e02020"/>
  <text x="1450" y="2195" text-anchor="middle" font-size="11" fill="#555" font-family="sans-serif">red diamond</text>

  <!-- 6) yellow crossX -->
  <rect x="1495" y="2085" width="90" height="90" rx="8" fill="#222"/>
  <g transform="translate(1540,2130) rotate(45)">
    <polygon points="0,-32 6,-6 32,0 6,6 0,32 -6,6 -32,0 -6,-6" fill="#f5d000"/>
  </g>
  <text x="1540" y="2195" text-anchor="middle" font-size="11" fill="#555" font-family="sans-serif">yellow crossX</text>

</svg>