<svg xmlns="http://www.w3.org/2000/svg" viewBox="0 0 2850 2215" width="2850" height="2215" style="background:#f5f0e8">
  <text x="1425" y="30" text-anchor="middle" font-size="20" fill="#333" font-family="sans-serif" font-weight="bold">Qwirkle Board State</text>
  <!-- Coordinate labels: x (columns) -->
  <text x="105"  y="48" text-anchor="middle" font-size="13" fill="#777" font-family="monospace">-9</text>
  <text x="215"  y="48" text-anchor="middle" font-size="13" fill="#777" font-family="monospace">-8</text>
  <text x="325"  y="48" text-anchor="middle" font-size="13" fill="#777" font-family="monospace">-7</text>
  <text x="435"  y="48" text-anchor="middle" font-size="13" fill="#777" font-family="monospace">-6</text>
  <text x="545"  y="48" text-anchor="middle" font-size="13" fill="#777" font-family="monospace">-5</text>
  <text x="655"  y="48" text-anchor="middle" font-size="13" fill="#777" font-family="monospace">-4</text>
  <text x="765"  y="48" text-anchor="middle" font-size="13" fill="#777" font-family="monospace">-3</text>
  <text x="875"  y="48" text-anchor="middle" font-size="13" fill="#777" font-family="monospace">-2</text>
  <text x="985"  y="48" text-anchor="middle" font-size="13" fill="#777" font-family="monospace">-1</text>
  <text x="1095"  y="48" text-anchor="middle" font-size="13" fill="#777" font-family="monospace">0</text>
  <text x="1205"  y="48" text-anchor="middle" font-size="13" fill="#777" font-family="monospace">1</text>
  <text x="1315"  y="48" text-anchor="middle" font-size="13" fill="#777" font-family="monospace">2</text>
  <text x="1425"  y="48" text-anchor="middle" font-size="13" fill="#777" font-family="monospace">3</text>
  <text x="1535"  y="48" text-anchor="middle" font-size="13" fill="#777" font-family="monospace">4</text>
  <text x="1645"  y="48" text-anchor="middle" font-size="13" fill="#777" font-family="monospace">5</text>
  <text x="1755"  y="48" text-anchor="middle" font-size="13" fill="#777" font-family="monospace">6</text>
  <text x="1865"  y="48" text-anchor="middle" font-size="13" fill="#777" font-family="monospace">7</text>
  <text x="1975"  y="48" text-anchor="middle" font-size="13" fill="#777" font-family="monospace">8</text>
  <text x="2085"  y="48" text-anchor="middle" font-size="13" fill="#777" font-family="monospace">9</text>
  <text x="2195"  y="48" text-anchor="middle" font-size="13" fill="#777" font-family="monospace">10</text>
  <text x="2305"  y="48" text-anchor="middle" font-size="13" fill="#777" font-family="monospace">11</text>
  <text x="2415"  y="48" text-anchor="middle" font-size="13" fill="#777" font-family="monospace">12</text>
  <text x="2525"  y="48" text-anchor="middle" font-size="13" fill="#777" font-family="monospace">13</text>
  <text x="2635"  y="48" text-anchor="middle" font-size="13" fill="#777" font-family="monospace">14</text>
  <text x="2745"  y="48" text-anchor="middle" font-size="13" fill="#777" font-family="monospace">15</text>
  <!-- Coordinate labels: y (rows) -->
  <text x="30" y="1989" text-anchor="middle" font-size="13" fill="#777" font-family="monospace">-8</text>
  <text x="30" y="1879" text-anchor="middle" font-size="13" fill="#777" font-family="monospace">-7</text>
  <text x="30" y="1769" text-anchor="middle" font-size="13" fill="#777" font-family="monospace">-6</text>
  <text x="30" y="1659" text-anchor="middle" font-size="13" fill="#777" font-family="monospace">-5</text>
  <text x="30" y="1549" text-anchor="middle" font-size="13" fill="#777" font-family="monospace">-4</text>
  <text x="30" y="1439" text-anchor="middle" font-size="13" fill="#777" font-family="monospace">-3</text>
  <text x="30" y="1329" text-anchor="middle" font-size="13" fill="#777" font-family="monospace">-2</text>
  <text x="30" y="1219" text-anchor="middle" font-size="13" fill="#777" font-family="monospace">-1</text>
  <text x="30" y="1109" text-anchor="middle" font-size="13" fill="#777" font-family="monospace">0</text>
  <text x="30" y="999" text-anchor="middle" font-size="13" fill="#777" font-family="monospace">1</text>
  <text x="30" y="889" text-anchor="middle" font-size="13" fill="#777" font-family="monospace">2</text>
  <text x="30" y="779" text-anchor="middle" font-size="13" fill="#777" font-family="monospace">3</text>
  <text x="30" y="669" text-anchor="middle" font-size="13" fill="#777" font-family="monospace">4</text>
  <text x="30" y="559" text-anchor="middle" font-size="13" fill="#777" font-family="monospace">5</text>
  <text x="30" y="449" text-anchor="middle" font-size="13" fill="#777" font-family="monospace">6</text>
  <text x="30" y="339" text-anchor="middle" font-size="13" fill="#777" font-family="monospace">7</text>
  <text x="30" y="229" text-anchor="middle" font-size="13" fill="#777" font-family="monospace">8</text>
  <text x="30" y="119" text-anchor="middle" font-size="13" fill="#777" font-family="monospace">9</text>

  <!-- ============================================ -->
  <!-- TILES                                        -->
  <!-- ============================================ -->

  <!-- (-7,6) red circle  |  px=270 py=390  cx=325 cy=445 -->
  <rect x="270" y="390" width="110" height="110" rx="8" fill="#222"/>
  <circle cx="325" cy="445" r="36" fill="#e02020"/>

  <!-- (-6,6) red star  |  px=380 py=390  cx=435 cy=445 -->
  <rect x="380" y="390" width="110" height="110" rx="8" fill="#222"/>
  <g transform="translate(435,445)">
    <polygon points="0,-42 8,-8 42,0 8,8 0,42 -8,8 -42,0 -8,-8" fill="#e02020"/>
    <polygon points="0,-42 8,-8 42,0 8,8 0,42 -8,8 -42,0 -8,-8" fill="#e02020" transform="rotate(45)" />
  </g>

  <!-- (-5,6) red square  |  px=490 py=390  cx=545 cy=445 -->
  <rect x="490" y="390" width="110" height="110" rx="8" fill="#222"/>
  <rect x="512" y="412" width="66" height="66" rx="4" fill="#e02020"/>

  <!-- (-5,5) purple square  |  px=490 py=500  cx=545 cy=555 -->
  <rect x="490" y="500" width="110" height="110" rx="8" fill="#222"/>
  <rect x="512" y="522" width="66" height="66" rx="4" fill="#8833cc"/>

  <!-- (-5,4) green square  |  px=490 py=610  cx=545 cy=665 -->
  <rect x="490" y="610" width="110" height="110" rx="8" fill="#222"/>
  <rect x="512" y="632" width="66" height="66" rx="4" fill="#22aa33"/>

  <!-- (-5,3) yellow square  |  px=490 py=720  cx=545 cy=775 -->
  <rect x="490" y="720" width="110" height="110" rx="8" fill="#222"/>
  <rect x="512" y="742" width="66" height="66" rx="4" fill="#f5d000"/>

  <!-- (-5,2) orange square  |  px=490 py=830  cx=545 cy=885 -->
  <rect x="490" y="830" width="110" height="110" rx="8" fill="#222"/>
  <rect x="512" y="852" width="66" height="66" rx="4" fill="#ff8800"/>

  <!-- (-5,1) blue square  |  px=490 py=940  cx=545 cy=995 -->
  <rect x="490" y="940" width="110" height="110" rx="8" fill="#222"/>
  <rect x="512" y="962" width="66" height="66" rx="4" fill="#1a6edb"/>

  <!-- (-4,5) purple star  |  px=600 py=500  cx=655 cy=555 -->
  <rect x="600" y="500" width="110" height="110" rx="8" fill="#222"/>
  <g transform="translate(655,555)">
    <polygon points="0,-42 8,-8 42,0 8,8 0,42 -8,8 -42,0 -8,-8" fill="#8833cc"/>
    <polygon points="0,-42 8,-8 42,0 8,8 0,42 -8,8 -42,0 -8,-8" fill="#8833cc" transform="rotate(45)" />
  </g>

  <!-- (-4,4) green star  |  px=600 py=610  cx=655 cy=665 -->
  <rect x="600" y="610" width="110" height="110" rx="8" fill="#222"/>
  <g transform="translate(655,665)">
    <polygon points="0,-42 8,-8 42,0 8,8 0,42 -8,8 -42,0 -8,-8" fill="#22aa33"/>
    <polygon points="0,-42 8,-8 42,0 8,8 0,42 -8,8 -42,0 -8,-8" fill="#22aa33" transform="rotate(45)" />
  </g>

  <!-- (-4,3) yellow star  |  px=600 py=720  cx=655 cy=775 -->
  <rect x="600" y="720" width="110" height="110" rx="8" fill="#222"/>
  <g transform="translate(655,775)">
    <polygon points="0,-42 8,-8 42,0 8,8 0,42 -8,8 -42,0 -8,-8" fill="#f5d000"/>
    <polygon points="0,-42 8,-8 42,0 8,8 0,42 -8,8 -42,0 -8,-8" fill="#f5d000" transform="rotate(45)" />
  </g>

  <!-- (-4,2) orange star  |  px=600 py=830  cx=655 cy=885 -->
  <rect x="600" y="830" width="110" height="110" rx="8" fill="#222"/>
  <g transform="translate(655,885)">
    <polygon points="0,-42 8,-8 42,0 8,8 0,42 -8,8 -42,0 -8,-8" fill="#ff8800"/>
    <polygon points="0,-42 8,-8 42,0 8,8 0,42 -8,8 -42,0 -8,-8" fill="#ff8800" transform="rotate(45)" />
  </g>

  <!-- (-3,7) blue crossX  |  px=710 py=280  cx=765 cy=335 -->
  <rect x="710" y="280" width="110" height="110" rx="8" fill="#222"/>
  <g transform="translate(765,335) rotate(45)">
    <polygon points="0,-42 8,-8 42,0 8,8 0,42 -8,8 -42,0 -8,-8" fill="#1a6edb"/>
  </g>

  <!-- (-3,6) green crossX  |  px=710 py=390  cx=765 cy=445 -->
  <rect x="710" y="390" width="110" height="110" rx="8" fill="#222"/>
  <g transform="translate(765,445) rotate(45)">
    <polygon points="0,-42 8,-8 42,0 8,8 0,42 -8,8 -42,0 -8,-8" fill="#22aa33"/>
  </g>

  <!-- (-3,3) yellow circle  |  px=710 py=720  cx=765 cy=775 -->
  <rect x="710" y="720" width="110" height="110" rx="8" fill="#222"/>
  <circle cx="765" cy="775" r="36" fill="#f5d000"/>

  <!-- (-3,2) orange circle  |  px=710 py=830  cx=765 cy=885 -->
  <rect x="710" y="830" width="110" height="110" rx="8" fill="#222"/>
  <circle cx="765" cy="885" r="36" fill="#ff8800"/>

  <!-- (-3,0) yellow crossX  |  px=710 py=1050  cx=765 cy=1105 -->
  <rect x="710" y="1050" width="110" height="110" rx="8" fill="#222"/>
  <g transform="translate(765,1105) rotate(45)">
    <polygon points="0,-42 8,-8 42,0 8,8 0,42 -8,8 -42,0 -8,-8" fill="#f5d000"/>
  </g>

  <!-- (-2,7) blue circle  |  px=820 py=280  cx=875 cy=335 -->
  <rect x="820" y="280" width="110" height="110" rx="8" fill="#222"/>
  <circle cx="875" cy="335" r="36" fill="#1a6edb"/>

  <!-- (-2,6) green circle  |  px=820 py=390  cx=875 cy=445 -->
  <rect x="820" y="390" width="110" height="110" rx="8" fill="#222"/>
  <circle cx="875" cy="445" r="36" fill="#22aa33"/>

  <!-- (-2,4) red clover  |  px=820 py=610  cx=875 cy=665 -->
  <rect x="820" y="610" width="110" height="110" rx="8" fill="#222"/>
  <g transform="translate(875,665)">
    <circle cx="0" cy="-26" r="18" fill="#e02020"/>
    <circle cx="26" cy="0" r="18" fill="#e02020"/>
    <circle cx="0" cy="26" r="18" fill="#e02020"/>
    <circle cx="-26" cy="0" r="18" fill="#e02020"/>
    <rect x="-9" y="-26" width="18" height="52" fill="#e02020"/>
    <rect x="-26" y="-9" width="52" height="18" fill="#e02020"/>
  </g>

  <!-- (-2,3) yellow clover  |  px=820 py=720  cx=875 cy=775 -->
  <rect x="820" y="720" width="110" height="110" rx="8" fill="#222"/>
  <g transform="translate(875,775)">
    <circle cx="0" cy="-26" r="18" fill="#f5d000"/>
    <circle cx="26" cy="0" r="18" fill="#f5d000"/>
    <circle cx="0" cy="26" r="18" fill="#f5d000"/>
    <circle cx="-26" cy="0" r="18" fill="#f5d000"/>
    <rect x="-9" y="-26" width="18" height="52" fill="#f5d000"/>
    <rect x="-26" y="-9" width="52" height="18" fill="#f5d000"/>
  </g>

  <!-- (-2,0) purple crossX  |  px=820 py=1050  cx=875 cy=1105 -->
  <rect x="820" y="1050" width="110" height="110" rx="8" fill="#222"/>
  <g transform="translate(875,1105) rotate(45)">
    <polygon points="0,-42 8,-8 42,0 8,8 0,42 -8,8 -42,0 -8,-8" fill="#8833cc"/>
  </g>

  <!-- (-1,7) blue diamond  |  px=930 py=280  cx=985 cy=335 -->
  <rect x="930" y="280" width="110" height="110" rx="8" fill="#222"/>
  <polygon points="985,294 1026,335 985,376 944,335" fill="#1a6edb"/>

  <!-- (-1,6) green diamond  |  px=930 py=390  cx=985 cy=445 -->
  <rect x="930" y="390" width="110" height="110" rx="8" fill="#222"/>
  <polygon points="985,404 1026,445 985,486 944,445" fill="#22aa33"/>

  <!-- (-1,5) purple diamond  |  px=930 py=500  cx=985 cy=555 -->
  <rect x="930" y="500" width="110" height="110" rx="8" fill="#222"/>
  <polygon points="985,514 1026,555 985,596 944,555" fill="#8833cc"/>

  <!-- (-1,4) red diamond  |  px=930 py=610  cx=985 cy=665 -->
  <rect x="930" y="610" width="110" height="110" rx="8" fill="#222"/>
  <polygon points="985,624 1026,665 985,706 944,665" fill="#e02020"/>

  <!-- (-1,3) yellow diamond  |  px=930 py=720  cx=985 cy=775 -->
  <rect x="930" y="720" width="110" height="110" rx="8" fill="#222"/>
  <polygon points="985,734 1026,775 985,816 944,775" fill="#f5d000"/>

  <!-- (-1,2) orange diamond  |  px=930 py=830  cx=985 cy=885 -->
  <rect x="930" y="830" width="110" height="110" rx="8" fill="#222"/>
  <polygon points="985,844 1026,885 985,926 944,885" fill="#ff8800"/>

  <!-- (-1,0) orange crossX  |  px=930 py=1050  cx=985 cy=1105 -->
  <rect x="930" y="1050" width="110" height="110" rx="8" fill="#222"/>
  <g transform="translate(985,1105) rotate(45)">
    <polygon points="0,-42 8,-8 42,0 8,8 0,42 -8,8 -42,0 -8,-8" fill="#ff8800"/>
  </g>

  <!-- (0,5) purple crossX  |  px=1040 py=500  cx=1095 cy=555 -->
  <rect x="1040" y="500" width="110" height="110" rx="8" fill="#222"/>
  <g transform="translate(1095,555) rotate(45)">
    <polygon points="0,-42 8,-8 42,0 8,8 0,42 -8,8 -42,0 -8,-8" fill="#8833cc"/>
  </g>

  <!-- (0,4) red crossX  |  px=1040 py=610  cx=1095 cy=665 -->
  <rect x="1040" y="610" width="110" height="110" rx="8" fill="#222"/>
  <g transform="translate(1095,665) rotate(45)">
    <polygon points="0,-42 8,-8 42,0 8,8 0,42 -8,8 -42,0 -8,-8" fill="#e02020"/>
  </g>

  <!-- (0,3) yellow crossX  |  px=1040 py=720  cx=1095 cy=775 -->
  <rect x="1040" y="720" width="110" height="110" rx="8" fill="#222"/>
  <g transform="translate(1095,775) rotate(45)">
    <polygon points="0,-42 8,-8 42,0 8,8 0,42 -8,8 -42,0 -8,-8" fill="#f5d000"/>
  </g>

  <!-- (0,2) orange crossX  |  px=1040 py=830  cx=1095 cy=885 -->
  <rect x="1040" y="830" width="110" height="110" rx="8" fill="#222"/>
  <g transform="translate(1095,885) rotate(45)">
    <polygon points="0,-42 8,-8 42,0 8,8 0,42 -8,8 -42,0 -8,-8" fill="#ff8800"/>
  </g>

  <!-- (0,1) green crossX  |  px=1040 py=940  cx=1095 cy=995 -->
  <rect x="1040" y="940" width="110" height="110" rx="8" fill="#222"/>
  <g transform="translate(1095,995) rotate(45)">
    <polygon points="0,-42 8,-8 42,0 8,8 0,42 -8,8 -42,0 -8,-8" fill="#22aa33"/>
  </g>

  <!-- (0,0) blue crossX  |  px=1040 py=1050  cx=1095 cy=1105 -->
  <rect x="1040" y="1050" width="110" height="110" rx="8" fill="#222"/>
  <g transform="translate(1095,1105) rotate(45)">
    <polygon points="0,-42 8,-8 42,0 8,8 0,42 -8,8 -42,0 -8,-8" fill="#1a6edb"/>
  </g>

  <!-- (1,5) purple circle  |  px=1150 py=500  cx=1205 cy=555 -->
  <rect x="1150" y="500" width="110" height="110" rx="8" fill="#222"/>
  <circle cx="1205" cy="555" r="36" fill="#8833cc"/>

  <!-- (1,4) red circle  |  px=1150 py=610  cx=1205 cy=665 -->
  <rect x="1150" y="610" width="110" height="110" rx="8" fill="#222"/>
  <circle cx="1205" cy="665" r="36" fill="#e02020"/>

  <!-- (1,1) green star  |  px=1150 py=940  cx=1205 cy=995 -->
  <rect x="1150" y="940" width="110" height="110" rx="8" fill="#222"/>
  <g transform="translate(1205,995)">
    <polygon points="0,-42 8,-8 42,0 8,8 0,42 -8,8 -42,0 -8,-8" fill="#22aa33"/>
    <polygon points="0,-42 8,-8 42,0 8,8 0,42 -8,8 -42,0 -8,-8" fill="#22aa33" transform="rotate(45)" />
  </g>

  <!-- (1,-1) blue clover  |  px=1150 py=1160  cx=1205 cy=1215 -->
  <rect x="1150" y="1160" width="110" height="110" rx="8" fill="#222"/>
  <g transform="translate(1205,1215)">
    <circle cx="0" cy="-26" r="18" fill="#1a6edb"/>
    <circle cx="26" cy="0" r="18" fill="#1a6edb"/>
    <circle cx="0" cy="26" r="18" fill="#1a6edb"/>
    <circle cx="-26" cy="0" r="18" fill="#1a6edb"/>
    <rect x="-9" y="-26" width="18" height="52" fill="#1a6edb"/>
    <rect x="-26" y="-9" width="52" height="18" fill="#1a6edb"/>
  </g>

  <!-- (1,-2) purple clover  |  px=1150 py=1270  cx=1205 cy=1325 -->
  <rect x="1150" y="1270" width="110" height="110" rx="8" fill="#222"/>
  <g transform="translate(1205,1325)">
    <circle cx="0" cy="-26" r="18" fill="#8833cc"/>
    <circle cx="26" cy="0" r="18" fill="#8833cc"/>
    <circle cx="0" cy="26" r="18" fill="#8833cc"/>
    <circle cx="-26" cy="0" r="18" fill="#8833cc"/>
    <rect x="-9" y="-26" width="18" height="52" fill="#8833cc"/>
    <rect x="-26" y="-9" width="52" height="18" fill="#8833cc"/>
  </g>

  <!-- (2,1) green clover  |  px=1260 py=940  cx=1315 cy=995 -->
  <rect x="1260" y="940" width="110" height="110" rx="8" fill="#222"/>
  <g transform="translate(1315,995)">
    <circle cx="0" cy="-26" r="18" fill="#22aa33"/>
    <circle cx="26" cy="0" r="18" fill="#22aa33"/>
    <circle cx="0" cy="26" r="18" fill="#22aa33"/>
    <circle cx="-26" cy="0" r="18" fill="#22aa33"/>
    <rect x="-9" y="-26" width="18" height="52" fill="#22aa33"/>
    <rect x="-26" y="-9" width="52" height="18" fill="#22aa33"/>
  </g>

  <!-- (2,0) purple clover  |  px=1260 py=1050  cx=1315 cy=1105 -->
  <rect x="1260" y="1050" width="110" height="110" rx="8" fill="#222"/>
  <g transform="translate(1315,1105)">
    <circle cx="0" cy="-26" r="18" fill="#8833cc"/>
    <circle cx="26" cy="0" r="18" fill="#8833cc"/>
    <circle cx="0" cy="26" r="18" fill="#8833cc"/>
    <circle cx="-26" cy="0" r="18" fill="#8833cc"/>
    <rect x="-9" y="-26" width="18" height="52" fill="#8833cc"/>
    <rect x="-26" y="-9" width="52" height="18" fill="#8833cc"/>
  </g>

  <!-- (2,-1) yellow clover  |  px=1260 py=1160  cx=1315 cy=1215 -->
  <rect x="1260" y="1160" width="110" height="110" rx="8" fill="#222"/>
  <g transform="translate(1315,1215)">
    <circle cx="0" cy="-26" r="18" fill="#f5d000"/>
    <circle cx="26" cy="0" r="18" fill="#f5d000"/>
    <circle cx="0" cy="26" r="18" fill="#f5d000"/>
    <circle cx="-26" cy="0" r="18" fill="#f5d000"/>
    <rect x="-9" y="-26" width="18" height="52" fill="#f5d000"/>
    <rect x="-26" y="-9" width="52" height="18" fill="#f5d000"/>
  </g>

  <!-- (2,-2) red clover  |  px=1260 py=1270  cx=1315 cy=1325 -->
  <rect x="1260" y="1270" width="110" height="110" rx="8" fill="#222"/>
  <g transform="translate(1315,1325)">
    <circle cx="0" cy="-26" r="18" fill="#e02020"/>
    <circle cx="26" cy="0" r="18" fill="#e02020"/>
    <circle cx="0" cy="26" r="18" fill="#e02020"/>
    <circle cx="-26" cy="0" r="18" fill="#e02020"/>
    <rect x="-9" y="-26" width="18" height="52" fill="#e02020"/>
    <rect x="-26" y="-9" width="52" height="18" fill="#e02020"/>
  </g>

  <!-- (2,-3) blue clover  |  px=1260 py=1380  cx=1315 cy=1435 -->
  <rect x="1260" y="1380" width="110" height="110" rx="8" fill="#222"/>
  <g transform="translate(1315,1435)">
    <circle cx="0" cy="-26" r="18" fill="#1a6edb"/>
    <circle cx="26" cy="0" r="18" fill="#1a6edb"/>
    <circle cx="0" cy="26" r="18" fill="#1a6edb"/>
    <circle cx="-26" cy="0" r="18" fill="#1a6edb"/>
    <rect x="-9" y="-26" width="18" height="52" fill="#1a6edb"/>
    <rect x="-26" y="-9" width="52" height="18" fill="#1a6edb"/>
  </g>

  <!-- (2,-4) orange clover  |  px=1260 py=1490  cx=1315 cy=1545 -->
  <rect x="1260" y="1490" width="110" height="110" rx="8" fill="#222"/>
  <g transform="translate(1315,1545)">
    <circle cx="0" cy="-26" r="18" fill="#ff8800"/>
    <circle cx="26" cy="0" r="18" fill="#ff8800"/>
    <circle cx="0" cy="26" r="18" fill="#ff8800"/>
    <circle cx="-26" cy="0" r="18" fill="#ff8800"/>
    <rect x="-9" y="-26" width="18" height="52" fill="#ff8800"/>
    <rect x="-26" y="-9" width="52" height="18" fill="#ff8800"/>
  </g>

  <!-- (3,4) yellow square  |  px=1370 py=610  cx=1425 cy=665 -->
  <rect x="1370" y="610" width="110" height="110" rx="8" fill="#222"/>
  <rect x="1392" y="632" width="66" height="66" rx="4" fill="#f5d000"/>

  <!-- (3,3) blue square  |  px=1370 py=720  cx=1425 cy=775 -->
  <rect x="1370" y="720" width="110" height="110" rx="8" fill="#222"/>
  <rect x="1392" y="742" width="66" height="66" rx="4" fill="#1a6edb"/>

  <!-- (3,2) red square  |  px=1370 py=830  cx=1425 cy=885 -->
  <rect x="1370" y="830" width="110" height="110" rx="8" fill="#222"/>
  <rect x="1392" y="852" width="66" height="66" rx="4" fill="#e02020"/>

  <!-- (3,1) green square  |  px=1370 py=940  cx=1425 cy=995 -->
  <rect x="1370" y="940" width="110" height="110" rx="8" fill="#222"/>
  <rect x="1392" y="962" width="66" height="66" rx="4" fill="#22aa33"/>

  <!-- (3,0) purple square  |  px=1370 py=1050  cx=1425 cy=1105 -->
  <rect x="1370" y="1050" width="110" height="110" rx="8" fill="#222"/>
  <rect x="1392" y="1072" width="66" height="66" rx="4" fill="#8833cc"/>

  <!-- (3,-3) blue diamond  |  px=1370 py=1380  cx=1425 cy=1435 -->
  <rect x="1370" y="1380" width="110" height="110" rx="8" fill="#222"/>
  <polygon points="1425,1394 1466,1435 1425,1476 1384,1435" fill="#1a6edb"/>

  <!-- (4,3) blue diamond  |  px=1480 py=720  cx=1535 cy=775 -->
  <rect x="1480" y="720" width="110" height="110" rx="8" fill="#222"/>
  <polygon points="1535,734 1576,775 1535,816 1494,775" fill="#1a6edb"/>

  <!-- (4,2) red diamond  |  px=1480 py=830  cx=1535 cy=885 -->
  <rect x="1480" y="830" width="110" height="110" rx="8" fill="#222"/>
  <polygon points="1535,844 1576,885 1535,926 1494,885" fill="#e02020"/>

  <!-- (4,1) green diamond  |  px=1480 py=940  cx=1535 cy=995 -->
  <rect x="1480" y="940" width="110" height="110" rx="8" fill="#222"/>
  <polygon points="1535,954 1576,995 1535,1036 1494,995" fill="#22aa33"/>

  <!-- (4,0) purple diamond  |  px=1480 py=1050  cx=1535 cy=1105 -->
  <rect x="1480" y="1050" width="110" height="110" rx="8" fill="#222"/>
  <polygon points="1535,1064 1576,1105 1535,1146 1494,1105" fill="#8833cc"/>

  <!-- (4,-1) yellow diamond  |  px=1480 py=1160  cx=1535 cy=1215 -->
  <rect x="1480" y="1160" width="110" height="110" rx="8" fill="#222"/>
  <polygon points="1535,1174 1576,1215 1535,1256 1494,1215" fill="#f5d000"/>

  <!-- (4,-2) orange diamond  |  px=1480 py=1270  cx=1535 cy=1325 -->
  <rect x="1480" y="1270" width="110" height="110" rx="8" fill="#222"/>
  <polygon points="1535,1284 1576,1325 1535,1366 1494,1325" fill="#ff8800"/>

  <!-- (5,3) blue star  |  px=1590 py=720  cx=1645 cy=775 -->
  <rect x="1590" y="720" width="110" height="110" rx="8" fill="#222"/>
  <g transform="translate(1645,775)">
    <polygon points="0,-42 8,-8 42,0 8,8 0,42 -8,8 -42,0 -8,-8" fill="#1a6edb"/>
    <polygon points="0,-42 8,-8 42,0 8,8 0,42 -8,8 -42,0 -8,-8" fill="#1a6edb" transform="rotate(45)" />
  </g>

  <!-- (5,1) green circle  |  px=1590 py=940  cx=1645 cy=995 -->
  <rect x="1590" y="940" width="110" height="110" rx="8" fill="#222"/>
  <circle cx="1645" cy="995" r="36" fill="#22aa33"/>

  <!-- (5,0) purple circle  |  px=1590 py=1050  cx=1645 cy=1105 -->
  <rect x="1590" y="1050" width="110" height="110" rx="8" fill="#222"/>
  <circle cx="1645" cy="1105" r="36" fill="#8833cc"/>

  <!-- (5,-1) yellow circle  |  px=1590 py=1160  cx=1645 cy=1215 -->
  <rect x="1590" y="1160" width="110" height="110" rx="8" fill="#222"/>
  <circle cx="1645" cy="1215" r="36" fill="#f5d000"/>

  <!-- (5,-2) orange circle  |  px=1590 py=1270  cx=1645 cy=1325 -->
  <rect x="1590" y="1270" width="110" height="110" rx="8" fill="#222"/>
  <circle cx="1645" cy="1325" r="36" fill="#ff8800"/>

  <!-- (5,-3) blue circle  |  px=1590 py=1380  cx=1645 cy=1435 -->
  <rect x="1590" y="1380" width="110" height="110" rx="8" fill="#222"/>
  <circle cx="1645" cy="1435" r="36" fill="#1a6edb"/>

  <!-- (5,-4) red circle  |  px=1590 py=1490  cx=1645 cy=1545 -->
  <rect x="1590" y="1490" width="110" height="110" rx="8" fill="#222"/>
  <circle cx="1645" cy="1545" r="36" fill="#e02020"/>

  <!-- (6,3) blue circle  |  px=1700 py=720  cx=1755 cy=775 -->
  <rect x="1700" y="720" width="110" height="110" rx="8" fill="#222"/>
  <circle cx="1755" cy="775" r="36" fill="#1a6edb"/>

  <!-- (6,-2) orange square  |  px=1700 py=1270  cx=1755 cy=1325 -->
  <rect x="1700" y="1270" width="110" height="110" rx="8" fill="#222"/>
  <rect x="1722" y="1292" width="66" height="66" rx="4" fill="#ff8800"/>

  <!-- (7,-1) purple clover  |  px=1810 py=1160  cx=1865 cy=1215 -->
  <rect x="1810" y="1160" width="110" height="110" rx="8" fill="#222"/>
  <g transform="translate(1865,1215)">
    <circle cx="0" cy="-26" r="18" fill="#8833cc"/>
    <circle cx="26" cy="0" r="18" fill="#8833cc"/>
    <circle cx="0" cy="26" r="18" fill="#8833cc"/>
    <circle cx="-26" cy="0" r="18" fill="#8833cc"/>
    <rect x="-9" y="-26" width="18" height="52" fill="#8833cc"/>
    <rect x="-26" y="-9" width="52" height="18" fill="#8833cc"/>
  </g>

  <!-- (7,-2) orange clover  |  px=1810 py=1270  cx=1865 cy=1325 -->
  <rect x="1810" y="1270" width="110" height="110" rx="8" fill="#222"/>
  <g transform="translate(1865,1325)">
    <circle cx="0" cy="-26" r="18" fill="#ff8800"/>
    <circle cx="26" cy="0" r="18" fill="#ff8800"/>
    <circle cx="0" cy="26" r="18" fill="#ff8800"/>
    <circle cx="-26" cy="0" r="18" fill="#ff8800"/>
    <rect x="-9" y="-26" width="18" height="52" fill="#ff8800"/>
    <rect x="-26" y="-9" width="52" height="18" fill="#ff8800"/>
  </g>

  <!-- (8,-1) purple star  |  px=1920 py=1160  cx=1975 cy=1215 -->
  <rect x="1920" y="1160" width="110" height="110" rx="8" fill="#222"/>
  <g transform="translate(1975,1215)">
    <polygon points="0,-42 8,-8 42,0 8,8 0,42 -8,8 -42,0 -8,-8" fill="#8833cc"/>
    <polygon points="0,-42 8,-8 42,0 8,8 0,42 -8,8 -42,0 -8,-8" fill="#8833cc" transform="rotate(45)" />
  </g>

  <!-- (8,-2) orange star  |  px=1920 py=1270  cx=1975 cy=1325 -->
  <rect x="1920" y="1270" width="110" height="110" rx="8" fill="#222"/>
  <g transform="translate(1975,1325)">
    <polygon points="0,-42 8,-8 42,0 8,8 0,42 -8,8 -42,0 -8,-8" fill="#ff8800"/>
    <polygon points="0,-42 8,-8 42,0 8,8 0,42 -8,8 -42,0 -8,-8" fill="#ff8800" transform="rotate(45)" />
  </g>

  <!-- (8,-3) blue star  |  px=1920 py=1380  cx=1975 cy=1435 -->
  <rect x="1920" y="1380" width="110" height="110" rx="8" fill="#222"/>
  <g transform="translate(1975,1435)">
    <polygon points="0,-42 8,-8 42,0 8,8 0,42 -8,8 -42,0 -8,-8" fill="#1a6edb"/>
    <polygon points="0,-42 8,-8 42,0 8,8 0,42 -8,8 -42,0 -8,-8" fill="#1a6edb" transform="rotate(45)" />
  </g>

  <!-- (8,-4) green star  |  px=1920 py=1490  cx=1975 cy=1545 -->
  <rect x="1920" y="1490" width="110" height="110" rx="8" fill="#222"/>
  <g transform="translate(1975,1545)">
    <polygon points="0,-42 8,-8 42,0 8,8 0,42 -8,8 -42,0 -8,-8" fill="#22aa33"/>
    <polygon points="0,-42 8,-8 42,0 8,8 0,42 -8,8 -42,0 -8,-8" fill="#22aa33" transform="rotate(45)" />
  </g>

  <!-- (8,-5) yellow star  |  px=1920 py=1600  cx=1975 cy=1655 -->
  <rect x="1920" y="1600" width="110" height="110" rx="8" fill="#222"/>
  <g transform="translate(1975,1655)">
    <polygon points="0,-42 8,-8 42,0 8,8 0,42 -8,8 -42,0 -8,-8" fill="#f5d000"/>
    <polygon points="0,-42 8,-8 42,0 8,8 0,42 -8,8 -42,0 -8,-8" fill="#f5d000" transform="rotate(45)" />
  </g>

  <!-- (8,-6) red star  |  px=1920 py=1710  cx=1975 cy=1765 -->
  <rect x="1920" y="1710" width="110" height="110" rx="8" fill="#222"/>
  <g transform="translate(1975,1765)">
    <polygon points="0,-42 8,-8 42,0 8,8 0,42 -8,8 -42,0 -8,-8" fill="#e02020"/>
    <polygon points="0,-42 8,-8 42,0 8,8 0,42 -8,8 -42,0 -8,-8" fill="#e02020" transform="rotate(45)" />
  </g>

  <!-- (9,2) yellow circle  |  px=2030 py=830  cx=2085 cy=885 -->
  <rect x="2030" y="830" width="110" height="110" rx="8" fill="#222"/>
  <circle cx="2085" cy="885" r="36" fill="#f5d000"/>

  <!-- (9,1) orange circle  |  px=2030 py=940  cx=2085 cy=995 -->
  <rect x="2030" y="940" width="110" height="110" rx="8" fill="#222"/>
  <circle cx="2085" cy="995" r="36" fill="#ff8800"/>

  <!-- (9,0) green circle  |  px=2030 py=1050  cx=2085 cy=1105 -->
  <rect x="2030" y="1050" width="110" height="110" rx="8" fill="#222"/>
  <circle cx="2085" cy="1105" r="36" fill="#22aa33"/>

  <!-- (9,-1) purple circle  |  px=2030 py=1160  cx=2085 cy=1215 -->
  <rect x="2030" y="1160" width="110" height="110" rx="8" fill="#222"/>
  <circle cx="2085" cy="1215" r="36" fill="#8833cc"/>

  <!-- (10,2) yellow diamond  |  px=2140 py=830  cx=2195 cy=885 -->
  <rect x="2140" y="830" width="110" height="110" rx="8" fill="#222"/>
  <polygon points="2195,844 2236,885 2195,926 2154,885" fill="#f5d000"/>

  <!-- (10,1) orange diamond  |  px=2140 py=940  cx=2195 cy=995 -->
  <rect x="2140" y="940" width="110" height="110" rx="8" fill="#222"/>
  <polygon points="2195,954 2236,995 2195,1036 2154,995" fill="#ff8800"/>

  <!-- (10,0) green diamond  |  px=2140 py=1050  cx=2195 cy=1105 -->
  <rect x="2140" y="1050" width="110" height="110" rx="8" fill="#222"/>
  <polygon points="2195,1064 2236,1105 2195,1146 2154,1105" fill="#22aa33"/>

  <!-- (10,-1) purple diamond  |  px=2140 py=1160  cx=2195 cy=1215 -->
  <rect x="2140" y="1160" width="110" height="110" rx="8" fill="#222"/>
  <polygon points="2195,1174 2236,1215 2195,1256 2154,1215" fill="#8833cc"/>

  <!-- (11,2) yellow crossX  |  px=2250 py=830  cx=2305 cy=885 -->
  <rect x="2250" y="830" width="110" height="110" rx="8" fill="#222"/>
  <g transform="translate(2305,885) rotate(45)">
    <polygon points="0,-42 8,-8 42,0 8,8 0,42 -8,8 -42,0 -8,-8" fill="#f5d000"/>
  </g>

  <!-- (11,1) orange crossX  |  px=2250 py=940  cx=2305 cy=995 -->
  <rect x="2250" y="940" width="110" height="110" rx="8" fill="#222"/>
  <g transform="translate(2305,995) rotate(45)">
    <polygon points="0,-42 8,-8 42,0 8,8 0,42 -8,8 -42,0 -8,-8" fill="#ff8800"/>
  </g>

  <!-- (11,0) green crossX  |  px=2250 py=1050  cx=2305 cy=1105 -->
  <rect x="2250" y="1050" width="110" height="110" rx="8" fill="#222"/>
  <g transform="translate(2305,1105) rotate(45)">
    <polygon points="0,-42 8,-8 42,0 8,8 0,42 -8,8 -42,0 -8,-8" fill="#22aa33"/>
  </g>

  <!-- (12,2) yellow clover  |  px=2360 py=830  cx=2415 cy=885 -->
  <rect x="2360" y="830" width="110" height="110" rx="8" fill="#222"/>
  <g transform="translate(2415,885)">
    <circle cx="0" cy="-26" r="18" fill="#f5d000"/>
    <circle cx="26" cy="0" r="18" fill="#f5d000"/>
    <circle cx="0" cy="26" r="18" fill="#f5d000"/>
    <circle cx="-26" cy="0" r="18" fill="#f5d000"/>
    <rect x="-9" y="-26" width="18" height="52" fill="#f5d000"/>
    <rect x="-26" y="-9" width="52" height="18" fill="#f5d000"/>
  </g>

  <!-- (12,1) orange clover  |  px=2360 py=940  cx=2415 cy=995 -->
  <rect x="2360" y="940" width="110" height="110" rx="8" fill="#222"/>
  <g transform="translate(2415,995)">
    <circle cx="0" cy="-26" r="18" fill="#ff8800"/>
    <circle cx="26" cy="0" r="18" fill="#ff8800"/>
    <circle cx="0" cy="26" r="18" fill="#ff8800"/>
    <circle cx="-26" cy="0" r="18" fill="#ff8800"/>
    <rect x="-9" y="-26" width="18" height="52" fill="#ff8800"/>
    <rect x="-26" y="-9" width="52" height="18" fill="#ff8800"/>
  </g>

  <!-- (12,0) green clover  |  px=2360 py=1050  cx=2415 cy=1105 -->
  <rect x="2360" y="1050" width="110" height="110" rx="8" fill="#222"/>
  <g transform="translate(2415,1105)">
    <circle cx="0" cy="-26" r="18" fill="#22aa33"/>
    <circle cx="26" cy="0" r="18" fill="#22aa33"/>
    <circle cx="0" cy="26" r="18" fill="#22aa33"/>
    <circle cx="-26" cy="0" r="18" fill="#22aa33"/>
    <rect x="-9" y="-26" width="18" height="52" fill="#22aa33"/>
    <rect x="-26" y="-9" width="52" height="18" fill="#22aa33"/>
  </g>

  <!-- (12,-1) red clover  |  px=2360 py=1160  cx=2415 cy=1215 -->
  <rect x="2360" y="1160" width="110" height="110" rx="8" fill="#222"/>
  <g transform="translate(2415,1215)">
    <circle cx="0" cy="-26" r="18" fill="#e02020"/>
    <circle cx="26" cy="0" r="18" fill="#e02020"/>
    <circle cx="0" cy="26" r="18" fill="#e02020"/>
    <circle cx="-26" cy="0" r="18" fill="#e02020"/>
    <rect x="-9" y="-26" width="18" height="52" fill="#e02020"/>
    <rect x="-26" y="-9" width="52" height="18" fill="#e02020"/>
  </g>

  <!-- (13,0) green square  |  px=2470 py=1050  cx=2525 cy=1105 -->
  <rect x="2470" y="1050" width="110" height="110" rx="8" fill="#222"/>
  <rect x="2492" y="1072" width="66" height="66" rx="4" fill="#22aa33"/>

  <!-- (13,-1) green clover  |  px=2470 py=1160  cx=2525 cy=1215 -->
  <rect x="2470" y="1160" width="110" height="110" rx="8" fill="#222"/>
  <g transform="translate(2525,1215)">
    <circle cx="0" cy="-26" r="18" fill="#22aa33"/>
    <circle cx="26" cy="0" r="18" fill="#22aa33"/>
    <circle cx="0" cy="26" r="18" fill="#22aa33"/>
    <circle cx="-26" cy="0" r="18" fill="#22aa33"/>
    <rect x="-9" y="-26" width="18" height="52" fill="#22aa33"/>
    <rect x="-26" y="-9" width="52" height="18" fill="#22aa33"/>
  </g>

  <!-- ============================================ -->
  <!-- MY TILES (bottom center)                     -->
  <!-- ============================================ -->
  <text x="1425" y="2070" text-anchor="middle" font-size="18" fill="#333" font-family="sans-serif" font-weight="bold">My Tiles</text>

  <!-- 1) orange circle -->
  <rect x="1155" y="2085" width="90" height="90" rx="8" fill="#222"/>
  <circle cx="1200" cy="2130" r="30" fill="#ff8800"/>
  <text x="1200" y="2195" text-anchor="middle" font-size="11" fill="#555" font-family="sans-serif">orange circle</text>

  <!-- 2) purple square -->
  <rect x="1245" y="2085" width="90" height="90" rx="8" fill="#222"/>
  <rect x="1267" y="2107" width="44" height="44" rx="4" fill="#8833cc"/>
  <text x="1290" y="2195" text-anchor="middle" font-size="11" fill="#555" font-family="sans-serif">purple square</text>

  <!-- 3) purple crossX -->
  <rect x="1335" y="2085" width="90" height="90" rx="8" fill="#222"/>
  <g transform="translate(1380,2130) rotate(45)">
    <polygon points="0,-32 6,-6 32,0 6,6 0,32 -6,6 -32,0 -6,-6" fill="#8833cc"/>
  </g>
  <text x="1380" y="2195" text-anchor="middle" font-size="11" fill="#555" font-family="sans-serif">purple crossX</text>

  <!-- 4) red star -->
  <rect x="1425" y="2085" width="90" height="90" rx="8" fill="#222"/>
  <g transform="translate(1470,2130)">
    <polygon points="0,-32 6,-6 32,0 6,6 0,32 -6,6 -32,0 -6,-6" fill="#e02020"/>
    <polygon points="0,-32 6,-6 32,0 6,6 0,32 -6,6 -32,0 -6,-6" fill="#e02020" transform="rotate(45)" />
  </g>
  <text x="1470" y="2195" text-anchor="middle" font-size="11" fill="#555" font-family="sans-serif">red star</text>

  <!-- 5) red diamond -->
  <rect x="1515" y="2085" width="90" height="90" rx="8" fill="#222"/>
  <polygon points="1560,2100 1590,2130 1560,2160 1530,2130" fill="#e02020"/>
  <text x="1560" y="2195" text-anchor="middle" font-size="11" fill="#555" font-family="sans-serif">red diamond</text>

  <!-- 6) blue clover -->
  <rect x="1605" y="2085" width="90" height="90" rx="8" fill="#222"/>
  <g transform="translate(1650,2130)">
    <circle cx="0" cy="-18" r="12" fill="#1a6edb"/>
    <circle cx="18" cy="0" r="12" fill="#1a6edb"/>
    <circle cx="0" cy="18" r="12" fill="#1a6edb"/>
    <circle cx="-18" cy="0" r="12" fill="#1a6edb"/>
    <rect x="-6" y="-18" width="12" height="36" fill="#1a6edb"/>
  </g>
  <text x="1650" y="2195" text-anchor="middle" font-size="11" fill="#555" font-family="sans-serif">blue clover</text>

</svg>