<svg xmlns="http://www.w3.org/2000/svg" viewBox="0 0 660 120" width="660" height="120">
  <!-- Background tiles -->
  <rect x="0"   y="0" width="110" height="110" rx="8" fill="#111"/>
  <rect x="110" y="0" width="110" height="110" rx="8" fill="#111"/>
  <rect x="220" y="0" width="110" height="110" rx="8" fill="#111"/>
  <rect x="330" y="0" width="110" height="110" rx="8" fill="#111"/>
  <rect x="440" y="0" width="110" height="110" rx="8" fill="#111"/>
  <rect x="550" y="0" width="110" height="110" rx="8" fill="#111"/>

  <!-- 1. Circle (red) -->
  <circle cx="55" cy="55" r="36" fill="#e02020"/>

  <!-- 2. Square (blue) -->
  <rect x="22" y="22" width="66" height="66" rx="4" fill="#1a6edb" transform="translate(110,0)"/>

  <!-- 3. Diamond (green) -->
  <polygon points="55,14 96,55 55,96 14,55" fill="#22aa33" transform="translate(220,0)"/>

  <!-- 4. Clover / 4-pointed cross (orange) -->
  <g transform="translate(385,55)">
    <circle cx="0"   cy="-26" r="14" fill="#ff8800"/>
    <circle cx="26"  cy="0"   r="14" fill="#ff8800"/>
    <circle cx="0"   cy="26"  r="14" fill="#ff8800"/>
    <circle cx="-26" cy="0"   r="14" fill="#ff8800"/>
    <rect x="-9" y="-26" width="18" height="52" fill="#ff8800"/>
    <rect x="-26" y="-9" width="52" height="18" fill="#ff8800"/>
  </g>

  <!-- 5. 4-pointed starburst (yellow)  -->
  <g transform="translate(495,55) rotate(40)">
    <polygon points="0,-42 8,-8 42,0 8,8 0,42 -8,8 -42,0 -8,-8" fill="#f5d000"/>
  </g>

  <!-- 6. 6-pointed star (purple) -->
  <g transform="translate(605,55)">
    <polygon points="0,-40 10,-10 40,0 10,10 0,40 -10,10 -40,0 -10,-10" fill="#8833cc" transform="rotate(30)"/>
    <polygon points="0,-40 10,-10 40,0 10,10 0,40 -10,10 -40,0 -10,-10" fill="#8833cc" transform="rotate(-30)"/>
    <polygon points="0,-40 10,-10 40,0 10,10 0,40 -10,10 -40,0 -10,-10" fill="#8833cc"/>
  </g>

  <!-- Labels -->
  <text x="55"  y="118" text-anchor="middle" font-size="11" fill="#555" font-family="sans-serif">Circle</text>
  <text x="165" y="118" text-anchor="middle" font-size="11" fill="#555" font-family="sans-serif">Square</text>
  <text x="275" y="118" text-anchor="middle" font-size="11" fill="#555" font-family="sans-serif">Diamond</text>
  <text x="385" y="118" text-anchor="middle" font-size="11" fill="#555" font-family="sans-serif">Clover</text>
  <text x="495" y="118" text-anchor="middle" font-size="11" fill="#555" font-family="sans-serif">Starburst</text>
  <text x="605" y="118" text-anchor="middle" font-size="11" fill="#555" font-family="sans-serif">6-pt Star</text>
</svg>
